<?xml version="1.0" encoding="UTF-8"?>
<svg version="1.1" xmlns="http://www.w3.org/2000/svg" width="154" height="153">
<path d="M0 0 C50.82 0 101.64 0 154 0 C154 50.49 154 100.98 154 153 C103.18 153 52.36 153 0 153 C0 102.51 0 52.02 0 0 Z " fill="#4F39F6" transform="translate(0,0)"/>
<path d="M0 0 C5.13037613 2.45830523 9.11729343 6.74696514 13.2890625 10.57421875 C15.9788057 12.98103507 18.74404586 15.24602617 21.5625 17.5 C35.18055556 28.54166667 35.18055556 28.54166667 37 34 C37.10511836 35.3948318 37.15837369 36.79396381 37.17700195 38.19262695 C37.18983719 39.03392654 37.20267242 39.87522614 37.21589661 40.74201965 C37.22328354 41.64828598 37.23067047 42.55455231 37.23828125 43.48828125 C37.246353 44.4242363 37.25442474 45.36019135 37.26274109 46.32450867 C37.27657102 48.30575717 37.28729805 50.2870294 37.29516602 52.26831055 C37.31237566 55.29066345 37.35627112 58.31192139 37.40039062 61.33398438 C37.41051826 63.26040864 37.41903414 65.18684218 37.42578125 67.11328125 C37.44328934 68.01347488 37.46079742 68.91366852 37.47883606 69.84114075 C37.45476332 76.84150301 35.66976891 80.34131817 30.6484375 85.34179688 C25.38461158 88.50911144 18.5537898 87.5711229 12.625 87.53125 C11.21305067 87.53394785 9.80110316 87.53783271 8.38916016 87.54284668 C5.43699368 87.54872811 2.48531292 87.54022345 -0.46679688 87.52148438 C-4.23972235 87.49869462 -8.01150954 87.51182514 -11.78439331 87.53577423 C-14.6979216 87.55026955 -17.61118264 87.54560937 -20.52471924 87.53526306 C-21.91530494 87.53260603 -23.30591537 87.53582936 -24.69647217 87.54518127 C-38.23736416 87.61627577 -38.23736416 87.61627577 -43 83 C-43.77279297 82.30124756 -44.54558594 81.60249512 -45.34179688 80.88256836 C-47.80123311 76.60716147 -47.57305972 72.73114783 -47.53125 67.87890625 C-47.53699036 66.41263039 -47.53699036 66.41263039 -47.54284668 64.91673279 C-47.54556375 62.85325081 -47.53821695 60.78973428 -47.52148438 58.72631836 C-47.50009524 55.57652514 -47.52128151 52.42901881 -47.546875 49.27929688 C-47.54423124 47.27082832 -47.53910526 45.26236118 -47.53125 43.25390625 C-47.53934692 42.31623917 -47.54744385 41.37857208 -47.55578613 40.41249084 C-47.46264184 33.87955714 -46.07457143 30.22538653 -41.46704102 25.3918457 C-40.98420654 24.99054443 -40.50137207 24.58924316 -40.00390625 24.17578125 C-39.45154297 23.70978516 -38.89917969 23.24378906 -38.33007812 22.76367188 C-37.74677734 22.28478516 -37.16347656 21.80589844 -36.5625 21.3125 C-35.95212891 20.80138672 -35.34175781 20.29027344 -34.71289062 19.76367188 C-33.44388951 18.70116116 -32.17254483 17.64144349 -30.89892578 16.58447266 C-29.05304771 15.04426326 -27.22496535 13.485594 -25.40234375 11.91796875 C-24.82991943 11.42707764 -24.25749512 10.93618652 -23.66772461 10.43041992 C-22.59037151 9.50636608 -21.51427107 8.58084884 -20.43969727 7.65356445 C-13.62404707 1.8525633 -9.05068757 -1.41416993 0 0 Z " fill="#F6F5FE" transform="translate(83,33)"/>
<path d="M0 0 C3.24158866 1.31064233 5.14351438 3.09320961 7.65625 5.5234375 C12.19754616 9.80802513 16.85418193 13.8170766 21.73046875 17.72265625 C22.65472656 18.48191406 23.57898438 19.24117187 24.53125 20.0234375 C25.1891301 20.48919189 25.84701019 20.95494629 26.52482605 21.43481445 C32.09848464 25.67708806 32.09848464 25.67708806 33.24913025 29.25679016 C33.48718476 31.81362286 33.48533902 34.25844604 33.3828125 36.82421875 C33.37623627 37.74180466 33.36966003 38.65939056 33.36288452 39.6047821 C33.3421354 41.53214161 33.30238996 43.4593808 33.24462891 45.38598633 C33.1559903 48.34460585 33.12168567 51.29997904 33.09765625 54.25976562 C33.07082497 56.13546384 33.04098363 58.01112194 33.0078125 59.88671875 C32.99303864 60.77313553 32.97826477 61.65955231 32.96304321 62.5728302 C32.76807245 68.78661505 32.76807245 68.78661505 30.53125 71.0234375 C27.2734375 71.21875 27.2734375 71.21875 23.40625 71.1484375 C21.48425781 71.12136719 21.48425781 71.12136719 19.5234375 71.09375 C18.53601563 71.07054688 17.54859375 71.04734375 16.53125 71.0234375 C16.51666748 70.14083252 16.50208496 69.25822754 16.48706055 68.34887695 C16.42582933 65.05905107 16.3516467 61.7700382 16.26879883 58.48071289 C16.23564443 57.05992548 16.20758308 55.63900937 16.18481445 54.21801758 C16.15109153 52.1695293 16.09877255 50.1222103 16.04296875 48.07421875 C16.01678467 46.84356689 15.99060059 45.61291504 15.96362305 44.3449707 C15.4637701 40.50505009 14.29203589 37.78422339 11.53125 35.0234375 C7.58010455 34.74285261 3.61617277 34.79162314 -0.34375 34.7734375 C-2.01630859 34.7425 -2.01630859 34.7425 -3.72265625 34.7109375 C-5.32560547 34.70320313 -5.32560547 34.70320313 -6.9609375 34.6953125 C-7.94433105 34.6859668 -8.92772461 34.67662109 -9.94091797 34.66699219 C-12.49530239 34.82034002 -12.49530239 34.82034002 -14.25048828 36.35644531 C-16.8681608 39.93830261 -16.65867085 43.59647192 -16.78515625 47.87890625 C-16.80593735 48.54054276 -16.82671844 49.20217926 -16.84812927 49.88386536 C-16.91339727 51.99278602 -16.97240344 54.10182885 -17.03125 56.2109375 C-17.07445689 57.64259065 -17.11807188 59.07423154 -17.16210938 60.50585938 C-17.26905506 64.01158904 -17.37038641 67.51745536 -17.46875 71.0234375 C-19.76016286 71.07728271 -22.05193188 71.11615837 -24.34375 71.1484375 C-25.61992188 71.17164062 -26.89609375 71.19484375 -28.2109375 71.21875 C-31.46875 71.0234375 -31.46875 71.0234375 -33.46875 69.0234375 C-34.04219906 63.16663527 -34.09652519 57.30478489 -34.16894531 51.42260742 C-34.20194583 49.46020877 -34.25637493 47.4980447 -34.33300781 45.53686523 C-34.96354825 29.30867331 -34.96354825 29.30867331 -31.3828125 23.83447266 C-28.86220352 21.55228695 -26.37674285 19.77409385 -23.46875 18.0234375 C-22.4684375 17.188125 -21.468125 16.3528125 -20.4375 15.4921875 C-19.6228125 14.8425 -18.808125 14.1928125 -17.96875 13.5234375 C-13.30579442 9.78514733 -8.99707249 5.78902873 -4.7578125 1.578125 C-2.46875 0.0234375 -2.46875 0.0234375 0 0 Z " fill="#503AF6" transform="translate(78.46875,39.9765625)"/>
<path d="M0 0 C5.28 0 10.56 0 16 0 C16 9.57 16 19.14 16 29 C10.72 29 5.44 29 0 29 C0 19.43 0 9.86 0 0 Z " fill="#503AF6" transform="translate(70,82)"/>
</svg>
